<svg width="27" height="30" viewBox="0 0 27 30" fill="none" xmlns="http://www.w3.org/2000/svg">
<path d="M0.637695 14.0375C0.628451 14.2613 0.628304 14.4949 0.619061 14.7187C0.609816 14.9426 0.627874 15.1761 0.636836 15.3999L26.3623 15.4009C26.3715 15.177 26.3717 14.9435 26.3809 14.7196C26.3902 14.4958 26.3721 14.2622 26.3632 14.0384L0.637695 14.0375Z" fill="#333333"/>
<path d="M13.4911 0.958701C13.2726 0.958623 13.0631 0.968282 12.8537 0.977942L12.8624 28.4697C13.0718 28.4795 13.2903 28.4796 13.4998 28.4894C13.7092 28.4992 13.9278 28.4798 14.1372 28.4701L14.1376 0.96867C13.9191 0.968591 13.7097 0.95878 13.4911 0.958701Z" fill="#333333"/>
</svg>
