<svg width="51" height="51" viewBox="0 0 51 51" fill="none" xmlns="http://www.w3.org/2000/svg">
<path d="M14.1884 12.9603C13.9785 13.1536 13.7679 13.3639 13.558 13.5572C13.348 13.7504 13.1539 13.9771 12.9604 14.1868L36.1322 37.3602C36.3421 37.1669 36.5527 36.9567 36.7626 36.7634C36.9726 36.5701 37.1667 36.3434 37.3602 36.1337L14.1884 12.9603Z" fill="#4871FF"/>
<path d="M37.5472 12.7573C37.3504 12.5604 37.1531 12.3804 36.9557 12.2005L12.2 36.9718C12.3798 37.1693 12.5766 37.3663 12.7564 37.5638C12.9362 37.7613 13.1506 37.9406 13.3479 38.1206L38.1206 13.3487C37.9238 13.1518 37.744 12.9543 37.5472 12.7573Z" fill="#4871FF"/>
</svg>
