<svg width="87" height="22" viewBox="0 0 87 22" fill="none" xmlns="http://www.w3.org/2000/svg">
<path d="M4.06739 21.436C2.7409 21.0764 1.65841 20.5645 0.819941 19.9005C0.55977 19.7214 0.344386 19.4847 0.190511 19.2088C0.029307 18.8515 -0.0313024 18.4569 0.015219 18.0677C0.0617404 17.6785 0.213629 17.3093 0.454504 17.0001C0.756539 16.6304 1.10238 16.4452 1.49203 16.4444C1.70555 16.4442 1.9177 16.4785 2.1203 16.5458C2.3811 16.6415 2.6311 16.7644 2.86617 16.9124C3.65549 17.4158 4.51259 17.804 5.41156 18.0652C6.33612 18.318 7.29133 18.441 8.24977 18.4307C9.5363 18.4307 10.5212 18.2163 11.2044 17.7874C11.5259 17.6013 11.791 17.3315 11.9713 17.0067C12.1515 16.6819 12.2403 16.3142 12.2281 15.9429C12.2281 15.3389 11.9111 14.8512 11.277 14.48C10.643 14.1088 9.5167 13.758 7.89816 13.4275C6.08442 13.0571 4.63611 12.6083 3.55324 12.081C2.47038 11.5538 1.6807 10.9006 1.18423 10.1213C0.686985 9.34198 0.438363 8.39629 0.438363 7.28422C0.426781 6.091 0.80123 4.92601 1.50586 3.96299C2.21829 2.9785 3.20356 2.20996 4.46165 1.65738C5.71975 1.10481 7.13846 0.826597 8.7178 0.822754C11.4845 0.822754 13.7663 1.51444 15.5632 2.8978C15.8199 3.09115 16.0341 3.33522 16.1926 3.61485C16.3265 3.89275 16.3918 4.19875 16.3828 4.50712C16.389 4.97628 16.228 5.43233 15.9286 5.79365C15.6266 6.16485 15.2807 6.35007 14.8911 6.3493C14.688 6.35093 14.4859 6.32178 14.2916 6.26284C14.0224 6.16427 13.7639 6.03834 13.5204 5.88702C12.8242 5.43328 12.0837 5.05129 11.3105 4.7469C10.6388 4.49328 9.78569 4.36647 8.75124 4.36647C7.56154 4.36647 6.62546 4.59703 5.943 5.05816C5.26054 5.51928 4.91932 6.14832 4.91932 6.9453C4.90394 7.36506 5.04437 7.77567 5.31357 8.0981C5.57718 8.40014 6.01602 8.66912 6.63008 8.90506C7.4856 9.20794 8.36066 9.45251 9.24925 9.63709C11.9007 10.2219 13.8071 10.9728 14.9683 11.8897C16.1296 12.8065 16.7098 14.0642 16.709 15.6628C16.7291 16.848 16.3652 18.0078 15.6715 18.969C14.9798 19.9251 14.0046 20.6664 12.7457 21.1928C11.4868 21.7192 10.0282 21.9809 8.36966 21.9779C6.91786 21.9893 5.47102 21.8071 4.06739 21.436Z" fill="#4871FF"/>
<path d="M39.3801 7.40874C39.6722 7.2003 40.0219 7.0879 40.3808 7.08711C40.9203 7.0851 41.4415 7.28306 41.8437 7.64276C42.0476 7.80875 42.2113 8.01865 42.3227 8.25679C42.4341 8.49494 42.4902 8.75517 42.4869 9.01805C42.4792 9.29001 42.4197 9.558 42.3117 9.80772L37.5138 20.5738C37.3513 20.9878 37.0518 21.3336 36.6653 21.5536C36.2905 21.774 35.8637 21.8902 35.4289 21.8902C34.9941 21.8902 34.5673 21.774 34.1925 21.5536C33.8128 21.3299 33.5196 20.9847 33.3602 20.5738L30.2292 13.2892L27.2157 20.5738C27.0583 20.9816 26.7706 21.3261 26.3973 21.5536C26.0172 21.7809 25.5812 21.8974 25.1384 21.8903C24.6966 21.8923 24.2624 21.7761 23.8807 21.5536C23.4941 21.3336 23.1947 20.9878 23.0322 20.5738L18.2585 9.80772C18.1463 9.55934 18.0862 9.29057 18.0821 9.01805C18.0813 8.7506 18.1435 8.48671 18.2636 8.24777C18.3838 8.00883 18.5586 7.80156 18.7738 7.64276C19.2137 7.27869 19.7682 7.08188 20.3393 7.08711C20.7194 7.08415 21.0915 7.19627 21.4068 7.40874C21.7419 7.64073 22.0014 7.9663 22.1526 8.34482L25.279 16.2139L28.4677 8.40246C28.6257 8.01547 28.8959 7.68463 29.2435 7.45255C29.5771 7.2307 29.9692 7.11349 30.3698 7.11593C30.773 7.11401 31.1686 7.22589 31.5111 7.43871C31.8723 7.6658 32.1496 8.00459 32.3008 8.40361L35.5482 16.2139L38.6516 8.34482C38.8 7.96956 39.0528 7.64471 39.3801 7.40874Z" fill="#4871FF"/>
<path d="M44.9678 4.11745C44.5228 3.71781 44.3003 3.17715 44.3003 2.49546C44.3003 1.81376 44.5243 1.27579 44.9724 0.88153C45.4212 0.491882 46.036 0.297058 46.8169 0.297058C47.5777 0.297058 48.1872 0.496878 48.6452 0.896516C49.1033 1.29616 49.3338 1.8276 49.3369 2.49084C49.3369 3.17484 49.1125 3.71628 48.6637 4.11515C48.2148 4.51402 47.6 4.71384 46.8192 4.7146C46.0337 4.71614 45.4166 4.51709 44.9678 4.11745ZM45.2225 21.3634C44.8029 21.0122 44.5931 20.4953 44.5931 19.8129V9.13445C44.5931 8.45199 44.8075 7.93515 45.2364 7.58393C45.6844 7.22728 46.2444 7.04102 46.8169 7.05825C47.3846 7.03907 47.9402 7.22577 48.3812 7.58393C48.8008 7.93592 49.0106 8.45276 49.0106 9.13445V19.8129C49.0106 20.4953 48.8008 21.0122 48.3812 21.3634C47.9407 21.7224 47.3849 21.9096 46.8169 21.8902C46.169 21.8902 45.6375 21.7146 45.2225 21.3634Z" fill="#4871FF"/>
<path d="M58.8257 4.0437C57.6452 4.80532 56.7434 5.89779 56.1201 7.32112C55.4968 8.74445 55.1848 10.4314 55.184 12.3819C55.184 14.8005 55.7788 16.6631 56.9685 17.9696C58.1582 19.2761 59.9232 19.9293 62.2634 19.9293C63.8858 19.9316 65.4974 19.6647 67.0325 19.1397L67.5294 12.8488H63.3793C63.0854 12.8668 62.7948 12.7784 62.5608 12.5998C62.4651 12.5196 62.389 12.4186 62.3383 12.3045C62.2876 12.1905 62.2635 12.0663 62.268 11.9416C62.2627 11.809 62.2877 11.677 62.341 11.5556C62.3944 11.4342 62.4746 11.3265 62.5758 11.2407C62.803 11.0561 63.0904 10.9621 63.3827 10.9767H68.6487C68.8059 10.9702 68.9626 10.9968 69.1088 11.0548C69.2549 11.1128 69.3873 11.2008 69.4972 11.3133C69.6028 11.4222 69.6816 11.5543 69.7274 11.6989C69.7733 11.8436 69.7848 11.9969 69.7612 12.1468L69.2344 19.3137C69.1952 19.7829 69.0926 20.1334 68.9266 20.3674C68.7606 20.6014 68.4931 20.7674 68.1196 20.8643C67.1892 21.2277 66.2233 21.4924 65.2376 21.6539C64.2106 21.8425 63.1691 21.9405 62.125 21.9467C59.1024 21.9467 56.7768 21.1133 55.1482 19.4463C53.5197 17.7794 52.7055 15.4534 52.7055 12.4684C52.7055 10.1082 53.1247 8.05546 53.9632 6.31011C54.8016 4.56476 55.9963 3.21983 57.5472 2.2753C59.0981 1.33 60.9265 0.857347 63.0323 0.857347C64.3441 0.839494 65.6495 1.04213 66.8942 1.45681C67.9775 1.81738 68.9736 2.40006 69.8188 3.16757C70.19 3.48036 70.3756 3.83158 70.3756 4.22123C70.3765 4.49137 70.2771 4.75223 70.0967 4.95326C70.0182 5.05281 69.9182 5.13334 69.8042 5.18883C69.6902 5.24433 69.5652 5.27335 69.4384 5.27374C69.1823 5.26541 68.936 5.17305 68.7375 5.0109C67.9504 4.33457 67.0548 3.79595 66.0884 3.41773C65.104 3.06157 64.0628 2.88811 63.0161 2.90588C61.3984 2.90434 60.0016 3.28362 58.8257 4.0437Z" fill="#4871FF"/>
<path d="M76.3483 21.0706C75.3531 20.5161 74.5477 19.675 74.0369 18.6566C73.499 17.6145 73.23 16.4006 73.23 15.0149C73.23 13.4356 73.5178 12.0522 74.0934 10.8648C74.6204 9.72874 75.4632 8.76828 76.5212 8.0981C77.5641 7.44485 78.7784 7.11783 80.1641 7.11707C81.5098 7.11707 82.6799 7.39989 83.6744 7.96553C84.6653 8.53005 85.4673 9.37465 85.98 10.3933C86.5256 11.447 86.7989 12.6659 86.7996 14.05C86.7996 15.6309 86.5118 17.0143 85.9362 18.2001C85.4101 19.3374 84.5615 20.2951 83.4957 20.9542C82.442 21.5974 81.2231 21.9191 79.839 21.9191C78.511 21.9191 77.3474 21.6362 76.3483 21.0706ZM83.1948 18.35C83.9849 17.274 84.3799 15.8111 84.3799 13.9613C84.3799 12.4019 84.0141 11.1976 83.2824 10.3484C82.5508 9.49914 81.5132 9.07645 80.1698 9.08029C78.745 9.08029 77.6333 9.62672 76.8348 10.7196C76.0363 11.8124 75.6363 13.275 75.6347 15.1072C75.6347 16.6865 75.9955 17.8908 76.7172 18.72C77.4389 19.5493 78.4921 19.9639 79.877 19.9639C81.2957 19.9608 82.4001 19.4229 83.1902 18.35H83.1948Z" fill="#4871FF"/>
</svg>
