<svg width="185" height="43" viewBox="0 0 185 43" fill="none" xmlns="http://www.w3.org/2000/svg">
<path d="M8.99256 14.0623H14.1345C14.7275 14.1013 15.2835 14.3643 15.6897 14.7981C16.0959 15.2319 16.322 15.8039 16.322 16.3982C16.322 16.9925 16.0959 17.5645 15.6897 17.9983C15.2835 18.4321 14.7275 18.6951 14.1345 18.7341H11.2797C10.6562 18.7341 10.0582 18.9818 9.61734 19.4227C9.17644 19.8636 8.92875 20.4616 8.92875 21.0851C8.92875 21.7086 9.17644 22.3066 9.61734 22.7475C10.0582 23.1884 10.6562 23.4361 11.2797 23.4361H19.6191C20.2131 23.4748 20.7704 23.7374 21.1784 24.171C21.5864 24.6045 21.8147 25.1767 21.8173 25.772C21.8171 26.368 21.5896 26.9415 21.1811 27.3756C20.7726 27.8096 20.214 28.0715 19.6191 28.1079H6.33257C5.74355 28.1552 5.19396 28.4226 4.79321 28.8569C4.39245 29.2911 4.16992 29.8604 4.16992 30.4513C4.16992 31.0422 4.39245 31.6115 4.79321 32.0457C5.19396 32.48 5.74355 32.7474 6.33257 32.7948H21.0649C21.6107 32.8877 22.1062 33.1702 22.4641 33.5926C22.8219 34.015 23.0193 34.5502 23.0213 35.1038C23.0213 36.2003 22.2992 37.2079 21.2816 37.4649H10.0304C9.40684 37.4649 8.80885 37.7125 8.36795 38.1534C7.92705 38.5943 7.67936 39.1923 7.67936 39.8158C7.68158 40.4379 7.93026 41.0337 8.37091 41.4728C8.81157 41.9119 9.40829 42.1585 10.0304 42.1585H21.8895V42.1769H23.9919C24.2153 42.1769 24.4386 42.1769 24.6636 42.1568H24.8148C25.005 42.1565 25.1946 42.1328 25.379 42.0862C27.36 41.8017 29.1722 40.8133 30.4841 39.302L41.035 27.1826C42.9655 24.9712 44.2669 22.2821 44.8032 19.396C45.3395 16.5099 45.0911 13.5328 44.0839 10.7755C43.0767 8.01821 41.3477 5.58191 39.0775 3.72101C36.8072 1.86012 34.0789 0.642906 31.1776 0.196476C30.657 0.115871 30.1398 0.0621336 29.6243 0.0285478C29.5295 0.0172709 29.4342 0.0111046 29.3388 0.0100757H29.2347C28.8484 -0.00335857 28.4639 -0.00335857 28.081 0.0100757H12.9809C12.3594 0.0122947 11.7641 0.260507 11.3251 0.700439C10.8861 1.14037 10.6391 1.73623 10.6383 2.35772C10.6383 2.97979 10.8848 3.57651 11.3239 4.01716C11.763 4.45782 12.3588 4.70649 12.9809 4.70872H17.6325C18.2265 4.74741 18.7838 5.01003 19.1918 5.44357C19.5998 5.87711 19.8281 6.44928 19.8307 7.0446C19.8268 7.63905 19.5979 8.20997 19.1901 8.64244C18.7822 9.07491 18.2257 9.33682 17.6325 9.37545H8.99256C8.66899 9.34944 8.34355 9.39073 8.03672 9.4967C7.7299 9.60267 7.44834 9.77103 7.20979 9.99118C6.97124 10.2113 6.78086 10.4785 6.65065 10.7758C6.52044 11.0732 6.45321 11.3943 6.45321 11.7189C6.45321 12.0435 6.52044 12.3646 6.65065 12.6619C6.78086 12.9593 6.97124 13.2265 7.20979 13.4466C7.44834 13.6668 7.7299 13.8351 8.03672 13.9411C8.34355 14.0471 8.66899 14.0883 8.99256 14.0623ZM35.406 8.33093L33.3204 14.2924C33.1524 14.7827 33.4732 15.3134 33.9417 15.3084L37.1945 15.2697C37.757 15.2697 38.0694 16.0002 37.71 16.4889L29.1776 28.076C28.7074 28.7141 27.8022 28.1398 28.0441 27.3556L30.1465 20.5662C30.296 20.0826 29.9786 19.5771 29.5218 19.5771H27.0852C26.6251 19.5771 26.306 19.0616 26.4638 18.5695L30.0021 7.78852C30.0409 7.65242 30.1217 7.53205 30.233 7.4446C30.3443 7.35715 30.4803 7.30707 30.6218 7.30153H34.7897C35.265 7.31497 35.5756 7.84226 35.406 8.33093Z" fill="#4871FF"/>
<path d="M2.6783 14.0623C3.97208 14.0623 5.0209 13.0135 5.0209 11.7197C5.0209 10.426 3.97208 9.37714 2.6783 9.37714C1.38451 9.37714 0.335693 10.426 0.335693 11.7197C0.335693 13.0135 1.38451 14.0623 2.6783 14.0623Z" fill="#4871FF"/>
<path d="M2.35101 23.421H5.33678C5.96031 23.421 6.55829 23.1733 6.99919 22.7324C7.44009 22.2915 7.68778 21.6935 7.68778 21.07C7.68778 20.4465 7.44009 19.8485 6.99919 19.4076C6.55829 18.9667 5.96031 18.719 5.33678 18.719H2.35101C2.04157 18.719 1.73517 18.7801 1.44938 18.8988C1.1636 19.0174 0.904052 19.1914 0.685631 19.4106C0.467211 19.6298 0.294212 19.8899 0.176558 20.1761C0.0589046 20.4623 -0.00109017 20.7689 1.4995e-05 21.0784C0.00223668 21.7005 0.250911 22.2963 0.691568 22.7354C1.13223 23.1745 1.72894 23.421 2.35101 23.421Z" fill="#4871FF"/>
<path d="M64.4845 36.1617C62.5522 35.6378 60.9754 34.8922 59.754 33.9249C59.375 33.664 59.0612 33.3192 58.8371 32.9173C58.6023 32.3968 58.514 31.8221 58.5817 31.2551C58.6495 30.6881 58.8708 30.1503 59.2216 29.6998C59.6616 29.1613 60.1654 28.8915 60.733 28.8904C61.044 28.8901 61.3531 28.94 61.6482 29.0382C62.0281 29.1776 62.3923 29.3566 62.7347 29.5722C63.8845 30.3054 65.133 30.8709 66.4426 31.2515C67.7894 31.6197 69.1808 31.7989 70.577 31.7838C72.4511 31.7838 73.8857 31.4715 74.881 30.8468C75.3494 30.5757 75.7354 30.1827 75.998 29.7095C76.2606 29.2363 76.39 28.7008 76.3722 28.1599C76.3722 27.28 75.9104 26.5696 74.9868 26.0289C74.0632 25.4882 72.4225 24.9771 70.0648 24.4957C67.4227 23.9561 65.313 23.3023 63.7356 22.5343C62.1582 21.7663 61.0078 20.8147 60.2846 19.6795C59.5603 18.5443 59.1981 17.1668 59.1981 15.5468C59.1813 13.8087 59.7267 12.1116 60.7532 10.7088C61.7909 9.27468 63.2262 8.15515 65.0588 7.35022C66.8915 6.54528 68.9581 6.14001 71.2588 6.13441C75.289 6.13441 78.6129 7.14199 81.2304 9.15713C81.6043 9.43878 81.9164 9.79431 82.1472 10.2016C82.3423 10.6065 82.4374 11.0522 82.4243 11.5014C82.4333 12.1848 82.1988 12.8492 81.7627 13.3755C81.3227 13.9162 80.8189 14.186 80.2513 14.1849C79.9556 14.1873 79.6611 14.1448 79.3781 14.059C78.9859 13.9154 78.6094 13.7319 78.2547 13.5115C77.2405 12.8506 76.1619 12.2941 75.0355 11.8507C74.057 11.4813 72.8143 11.2965 71.3075 11.2965C69.5744 11.2965 68.2109 11.6324 67.2167 12.3041C66.2226 12.9758 65.7255 13.8922 65.7255 15.0531C65.7031 15.6646 65.9077 16.2627 66.2998 16.7324C66.6838 17.1724 67.3231 17.5642 68.2176 17.9079C69.4638 18.3491 70.7385 18.7053 72.0329 18.9742C75.8953 19.8262 78.6722 20.92 80.3638 22.2556C82.0554 23.5911 82.9007 25.4232 82.8996 27.7519C82.9288 29.4783 82.3986 31.1679 81.3882 32.568C80.3806 33.9607 78.96 35.0405 77.1262 35.8074C75.2924 36.5743 73.1675 36.9555 70.7516 36.951C68.6368 36.9677 66.5292 36.7022 64.4845 36.1617Z" fill="#4871FF"/>
<path d="M115.924 15.7282C116.35 15.4246 116.859 15.2608 117.382 15.2597C118.168 15.2567 118.927 15.5451 119.513 16.0691C119.81 16.3109 120.049 16.6166 120.211 16.9635C120.373 17.3105 120.455 17.6895 120.45 18.0725C120.439 18.4686 120.352 18.859 120.195 19.2228L113.206 34.9056C112.969 35.5088 112.533 36.0125 111.97 36.333C111.424 36.654 110.802 36.8233 110.169 36.8233C109.535 36.8233 108.914 36.654 108.368 36.333C107.815 36.0071 107.387 35.5042 107.155 34.9056L102.594 24.2942L98.2046 34.9056C97.9752 35.4997 97.5561 36.0015 97.0124 36.333C96.4587 36.664 95.8236 36.8338 95.1786 36.8234C94.5351 36.8264 93.9025 36.657 93.3465 36.333C92.7834 36.0125 92.3472 35.5088 92.1105 34.9056L85.1566 19.2228C84.9932 18.861 84.9057 18.4694 84.8997 18.0725C84.8985 17.6829 84.9891 17.2985 85.1641 16.9504C85.3392 16.6023 85.5938 16.3004 85.9072 16.0691C86.5481 15.5388 87.3559 15.2521 88.1877 15.2597C88.7415 15.2554 89.2835 15.4187 89.7427 15.7282C90.231 16.0661 90.6089 16.5404 90.8292 17.0918L95.3834 28.5546L100.028 17.1757C100.258 16.612 100.652 16.1301 101.159 15.792C101.644 15.4688 102.216 15.2981 102.799 15.3017C103.387 15.2989 103.963 15.4618 104.462 15.7719C104.988 16.1027 105.392 16.5962 105.612 17.1774L110.343 28.5546L114.863 17.0918C115.079 16.5451 115.448 16.0719 115.924 15.7282Z" fill="#4871FF"/>
<path d="M124.064 10.9338C123.416 10.3517 123.092 9.56408 123.092 8.57106C123.092 7.57805 123.418 6.79438 124.071 6.22007C124.724 5.65247 125.62 5.36867 126.757 5.36867C127.866 5.36867 128.754 5.65974 129.421 6.2419C130.088 6.82405 130.424 7.5982 130.428 8.56435C130.428 9.56072 130.101 10.3494 129.448 10.9305C128.794 11.5115 127.898 11.8026 126.761 11.8037C125.617 11.8059 124.718 11.516 124.064 10.9338ZM124.435 36.0559C123.824 35.5443 123.518 34.7914 123.518 33.7973V18.2421C123.518 17.2479 123.83 16.4951 124.455 15.9834C125.108 15.4639 125.924 15.1926 126.757 15.2177C127.585 15.1897 128.394 15.4617 129.036 15.9834C129.647 16.4962 129.953 17.249 129.953 18.2421V33.7973C129.953 34.7914 129.647 35.5443 129.036 36.0559C128.394 36.5789 127.585 36.8516 126.757 36.8234C125.814 36.8234 125.04 36.5675 124.435 36.0559Z" fill="#4871FF"/>
<path d="M144.251 10.8264C142.531 11.9358 141.217 13.5272 140.31 15.6006C139.402 17.6739 138.947 20.1313 138.946 22.9726C138.946 26.4958 139.812 29.2089 141.545 31.1121C143.278 33.0153 145.849 33.9669 149.258 33.9669C151.622 33.9701 153.969 33.5814 156.206 32.8166L156.929 23.6527H150.884C150.456 23.679 150.033 23.5502 149.692 23.29C149.552 23.1731 149.441 23.026 149.368 22.8599C149.294 22.6937 149.259 22.5129 149.265 22.3311C149.257 22.1381 149.294 21.9458 149.372 21.7689C149.449 21.592 149.566 21.4351 149.713 21.3101C150.044 21.0413 150.463 20.9043 150.889 20.9256H158.56C158.789 20.9161 159.017 20.9549 159.23 21.0393C159.443 21.1238 159.636 21.2521 159.796 21.4159C159.95 21.5746 160.065 21.7669 160.131 21.9777C160.198 22.1884 160.215 22.4117 160.18 22.63L159.413 33.0702C159.356 33.7536 159.206 34.2641 158.965 34.605C158.723 34.9459 158.333 35.1877 157.789 35.3288C156.434 35.8582 155.027 36.2437 153.591 36.4791C152.095 36.7538 150.578 36.8965 149.057 36.9056C144.654 36.9056 141.266 35.6915 138.894 33.2633C136.522 30.835 135.335 27.4468 135.335 23.0986C135.335 19.6605 135.946 16.6703 137.168 14.1278C138.389 11.5854 140.129 9.62622 142.388 8.25033C144.648 6.87331 147.311 6.18481 150.378 6.18481C152.289 6.1588 154.191 6.45399 156.004 7.05804C157.582 7.58329 159.033 8.43207 160.264 9.5501C160.805 10.0057 161.076 10.5174 161.076 11.085C161.077 11.4785 160.932 11.8585 160.669 12.1513C160.555 12.2963 160.409 12.4136 160.243 12.4945C160.077 12.5753 159.895 12.6176 159.71 12.6181C159.337 12.606 158.978 12.4715 158.689 12.2353C157.543 11.2501 156.238 10.4655 154.83 9.9145C153.396 9.39569 151.88 9.14302 150.355 9.1689C147.998 9.16666 145.964 9.71914 144.251 10.8264Z" fill="#4871FF"/>
<path d="M169.776 35.6294C168.326 34.8216 167.153 33.5964 166.409 32.113C165.625 30.5949 165.233 28.8266 165.233 26.8081C165.233 24.5075 165.653 22.4923 166.491 20.7627C167.259 19.1077 168.487 17.7086 170.028 16.7324C171.547 15.7808 173.316 15.3044 175.334 15.3033C177.295 15.3033 178.999 15.7153 180.448 16.5393C181.891 17.3616 183.06 18.5919 183.806 20.0758C184.601 21.6107 184.999 23.3863 185 25.4025C185 27.7054 184.581 29.7205 183.742 31.448C182.976 33.1047 181.74 34.4997 180.187 35.4598C178.653 36.3968 176.877 36.8653 174.861 36.8653C172.926 36.8653 171.231 36.4533 169.776 35.6294ZM179.749 31.6663C180.9 30.0989 181.475 27.9679 181.475 25.2732C181.475 23.0017 180.943 21.2474 179.877 20.0104C178.811 18.7733 177.3 18.1575 175.343 18.1631C173.267 18.1631 171.648 18.9591 170.485 20.5511C169.321 22.143 168.739 24.2735 168.736 26.9424C168.736 29.2431 169.262 30.9974 170.313 32.2053C171.364 33.4133 172.899 34.0173 174.916 34.0173C176.983 34.0128 178.592 33.2291 179.742 31.6663H179.749Z" fill="#4871FF"/>
</svg>
